HIERARCHY
ROOT Hips
{
	OFFSET 0.000000 8.830580 0.000000
	CHANNELS 6 Xposition Yposition Zposition Zrotation Yrotation Xrotation 
	JOINT Spine
	{
		OFFSET 0.000000 0.010000 0.000000
		CHANNELS 3 Zrotation Yrotation Xrotation
		JOINT Spine1
		{
			OFFSET 0.000000 2.459130 0.000000
			CHANNELS 3 Zrotation Yrotation Xrotation
			JOINT Neck
			{
				OFFSET 0.000000 2.484630 0.000000
				CHANNELS 3 Zrotation Yrotation Xrotation
				JOINT Head_virtual
				{
					OFFSET 0.000000 0.000000 0.000000
					CHANNELS 3 Zrotation Yrotation Xrotation
					JOINT Head
					{
						OFFSET 0.000000 0.927525 0.000000
						CHANNELS 3 Zrotation Yrotation Xrotation
						End Site
						{
							OFFSET 0.000000 0.000000 0.000000
						}
					}
				}
				JOINT LeftUpArm_virtual
				{
					OFFSET 0.000000 0.000000 0.000000
					CHANNELS 3 Zrotation Yrotation Xrotation
					JOINT LeftUpArm
					{
						OFFSET 1.248820 0.000000 0.000000
						CHANNELS 3 Zrotation Yrotation Xrotation
						JOINT LeftForeArm
						{
							OFFSET 2.597580 0.000000 0.000000
							CHANNELS 3 Zrotation Yrotation Xrotation
							JOINT LeftHand
							{
								OFFSET 2.455420 0.000000 0.000000
								CHANNELS 3 Zrotation Yrotation Xrotation
								End Site
								{
									OFFSET 0.000000 0.000000 0.000000
								}
							}
						}
					}
				}
				JOINT RightUpArm_virtual
				{
					OFFSET -0.000000 -0.000000 -0.000000
					CHANNELS 3 Zrotation Yrotation Xrotation
					JOINT RightUpArm
					{
						OFFSET -1.248820 -0.000000 -0.000000
						CHANNELS 3 Zrotation Yrotation Xrotation
						JOINT RightForeArm
						{
							OFFSET -2.597580 -0.000000 -0.000000
							CHANNELS 3 Zrotation Yrotation Xrotation
							JOINT RightHand
							{
								OFFSET -2.455420 -0.000000 -0.000000
								CHANNELS 3 Zrotation Yrotation Xrotation
								End Site
								{
									OFFSET 0.000000 0.000000 0.000000
								}
							}
						}
					}
				}
			}
		}
	}
	JOINT LeftUpLeg
	{
		OFFSET 1.271939 0.000000 0.000000
		CHANNELS 3 Zrotation Yrotation Xrotation
		JOINT LeftLowLeg
		{
			OFFSET 0.000000 -4.342910 0.000000
			CHANNELS 3 Zrotation Yrotation Xrotation
			JOINT LeftFoot
			{
				OFFSET 0.000000 -4.487670 0.000000
				CHANNELS 3 Zrotation Yrotation Xrotation
				JOINT LeftToeBase
				{
					OFFSET 0.000000 0.000000 1.515070
					CHANNELS 3 Zrotation Yrotation Xrotation
					End Site
					{
						OFFSET 0.000000 0.000000 0.000000
					}
				}
			}
		}
	}
	JOINT RightUpLeg
	{
		OFFSET -1.271939 0.000000 0.000000
		CHANNELS 3 Zrotation Yrotation Xrotation
		JOINT RightLowLeg
		{
			OFFSET 0.000000 -4.342910 0.000000
			CHANNELS 3 Zrotation Yrotation Xrotation
			JOINT RightFoot
			{
				OFFSET 0.000000 -4.487670 0.000000
				CHANNELS 3 Zrotation Yrotation Xrotation
				JOINT RightToeBase
				{
					OFFSET 0.000000 0.000000 1.515070
					CHANNELS 3 Zrotation Yrotation Xrotation
					End Site
					{
						OFFSET 0.000000 0.000000 0.000000
					}
				}
			}
		}
	}
}
MOTION
Frames: 17
Frame Time: 0.041667
-20.962102 9.152413 28.468009 -15.952378 -69.112916 22.801658 1.286647 -3.988938 -6.932546 9.419583 -0.262419 -10.501311 0.000000 0.000000 0.000000 -22.218318 11.532311 15.238458 6.076497 4.838891 -87.720890 -34.925400 8.294070 10.929300 -47.666801 12.379000 76.046204 0.000000 -39.793499 0.000000 26.634501 -1.928940 -12.444800 29.572599 -5.832430 17.101400 45.244701 -15.510500 66.759903 0.000000 39.133099 0.000000 -49.784801 -9.690840 -25.830099 -5.625984 -0.155895 -5.669431 0.000000 0.000000 3.573590 -6.361062 15.645667 1.562404 0.000000 0.000000 -32.054199 0.904998 5.738237 -18.709705 0.000000 0.000000 62.950401 12.654167 3.028350 18.479097 0.000000 0.000000 -51.615299 
-21.069749 9.153204 28.552784 -16.305656 -68.092426 23.025903 1.765880 -4.475467 -7.110423 9.364983 -0.875703 -10.173101 0.000000 0.000000 0.000000 -22.103742 11.289532 15.412476 5.823841 4.881252 -87.850049 -34.892700 8.071120 11.116000 -48.208801 12.311300 75.678200 0.000000 -39.375702 0.000000 26.634399 -1.929090 -12.444100 29.646000 -6.082460 16.666300 45.121899 -15.555700 66.552902 0.000000 38.821899 0.000000 -49.745300 -9.200490 -25.626200 -5.435042 -0.831698 -4.716568 0.000000 0.000000 3.510130 -6.426491 15.593132 1.165191 0.000000 0.000000 -31.405300 1.485992 5.505533 -20.422684 0.000000 0.000000 62.573299 12.126236 1.966227 14.493122 0.000000 0.000000 -51.468399 
-21.175535 9.154754 28.629113 -16.380718 -66.878054 22.981647 1.948988 -5.046293 -7.133212 9.637226 -1.506897 -10.054613 0.000000 0.000000 0.000000 -22.130354 11.275439 15.630849 5.808900 4.915447 -87.945394 -34.866901 8.153160 11.407200 -48.682400 11.997500 75.600197 0.000000 -39.123299 0.000000 26.634199 -1.929230 -12.443500 29.606199 -6.272250 16.308901 45.098099 -15.686200 66.178101 0.000000 38.512798 0.000000 -49.554199 -8.879650 -25.622601 -5.161472 -1.645991 -3.828282 0.000000 0.000000 3.489290 -6.519820 15.337640 0.837014 0.000000 0.000000 -31.372801 2.153734 5.443334 -21.938328 0.000000 0.000000 61.332802 11.022933 0.615102 10.655971 0.000000 0.000000 -51.040401 
-21.261623 9.158881 28.676401 -15.639892 -64.732452 21.562805 1.123917 -6.070683 -5.675199 11.096543 -2.352925 -10.840750 0.000000 0.000000 0.000000 -22.127936 11.065307 15.911536 5.772154 4.842885 -87.915910 -35.166599 8.193840 11.376200 -49.016899 12.118900 75.586502 0.000000 -39.036499 0.000000 26.633801 -1.929540 -12.442000 29.235300 -6.477870 16.128000 45.201801 -15.808200 65.626297 0.000000 38.238701 0.000000 -49.583302 -8.834060 -25.294399 -4.715786 -2.990616 -2.913661 0.000000 0.000000 4.163670 -6.726066 14.447733 0.518808 0.000000 0.000000 -31.301701 3.030622 5.098477 -22.738374 0.000000 0.000000 59.245399 10.468550 -0.767685 7.212571 0.000000 0.000000 -49.416401 
-21.362669 9.160463 28.752774 -15.510419 -63.423877 21.508812 0.946630 -6.452498 -5.765022 11.819584 -2.744074 -10.748371 0.000000 0.000000 0.000000 -22.127933 10.914544 16.154380 5.946201 4.797904 -88.035862 -35.511101 8.279840 11.476700 -49.154499 11.970700 75.649597 0.000000 -39.051800 0.000000 26.633699 -1.929690 -12.441300 29.016600 -6.671450 15.718800 45.216999 -16.076500 65.127502 0.000000 37.922501 0.000000 -49.516998 -8.639000 -25.222000 -4.515836 -3.394507 -2.280042 0.000000 0.000000 4.227260 -6.831511 13.777813 0.206749 0.000000 0.000000 -31.003799 3.480712 5.860293 -24.032151 0.000000 0.000000 56.305000 9.532101 -2.113919 4.731327 0.000000 0.000000 -47.255001 
-21.461950 9.158239 28.827408 -15.260614 -62.111234 21.350106 0.663600 -6.732218 -5.893529 12.488111 -3.038795 -10.474194 0.000000 0.000000 0.000000 -21.911152 10.565628 16.204807 6.041308 4.805389 -88.138363 -35.808601 8.227930 11.542600 -49.326500 11.934200 75.473297 0.000000 -39.073002 0.000000 26.633499 -1.929850 -12.440700 28.801701 -6.744380 15.422000 45.315399 -16.278601 64.517403 0.000000 37.697899 0.000000 -49.187698 -8.603960 -25.400101 -4.351198 -3.359471 -1.684185 0.000000 0.000000 4.310970 -5.734205 13.019099 -0.021862 0.000000 0.000000 -29.950300 3.703768 7.049121 -25.202344 0.000000 0.000000 52.734200 9.685219 -3.297878 3.795294 0.000000 0.000000 -45.649000 
-21.557534 9.153970 28.901538 -15.019934 -60.738515 21.169677 0.381181 -6.890172 -5.914566 13.132592 -3.207510 -10.218880 0.000000 0.000000 0.000000 -21.664190 10.156384 16.141442 6.217510 4.766327 -88.250992 -36.090900 8.187240 11.594800 -49.405201 11.781300 75.450798 0.000000 -39.067902 0.000000 26.633301 -1.930020 -12.439900 28.567801 -6.844800 15.260300 45.442402 -16.337299 63.974899 0.000000 37.563000 0.000000 -48.947601 -8.681360 -25.273399 -4.156276 -3.485627 -1.127596 0.000000 0.000000 4.494200 -6.597554 11.772854 -0.445676 0.000000 0.000000 -30.084700 3.799960 8.349521 -26.167825 0.000000 0.000000 48.594601 10.134822 -4.729845 3.718882 0.000000 0.000000 -44.498899 
-21.653546 9.146978 28.975907 -14.626386 -59.290546 20.887164 0.077890 -7.008202 -6.099341 13.642313 -3.371780 -9.685398 0.000000 0.000000 0.000000 -21.361144 9.713805 15.882817 6.403098 4.712492 -88.371627 -36.370098 8.137640 11.601000 -49.388699 11.512800 75.582001 0.000000 -39.081100 0.000000 26.633101 -1.930160 -12.439200 28.389299 -6.881080 15.272100 45.554699 -16.149300 63.582802 0.000000 37.525600 0.000000 -48.979900 -8.795910 -25.477900 -4.012688 -3.930295 -0.613484 0.000000 0.000000 4.710810 -6.899667 11.091371 -0.750927 0.000000 0.000000 -30.129300 3.713416 9.642538 -26.940038 0.000000 0.000000 44.010601 10.682622 -6.220216 4.046663 0.000000 0.000000 -43.289200 
-21.750813 9.139105 29.051251 -14.285176 -57.720155 20.517277 -0.192795 -7.115619 -6.237085 14.126817 -3.560877 -8.960903 0.000000 0.000000 0.000000 -21.061984 9.238887 15.505318 6.561937 4.617189 -88.597710 -36.685600 8.078940 11.350700 -49.257000 11.306200 76.105003 0.000000 -39.141602 0.000000 26.632900 -1.930350 -12.438400 28.173901 -6.738930 14.815600 45.628700 -16.329100 63.465000 0.000000 37.533798 0.000000 -48.791401 -9.131410 -25.869900 -3.800621 -4.471840 -0.005888 0.000000 0.000000 5.016940 -6.949419 10.398972 -1.115525 0.000000 0.000000 -29.656000 3.607026 10.777339 -27.322816 0.000000 0.000000 38.977600 11.283549 -7.538468 4.715043 0.000000 0.000000 -42.405899 
-21.849609 9.130458 29.128447 -13.839987 -56.048535 20.125152 -0.497098 -7.159215 -6.428508 14.591685 -3.666134 -8.321951 0.000000 0.000000 0.000000 -20.699436 8.641301 15.252646 6.807333 4.530055 -88.851417 -37.005001 8.044080 11.203100 -49.181702 11.081700 75.924103 0.000000 -39.089298 0.000000 26.632700 -1.930520 -12.437600 28.039700 -6.652100 14.979100 45.671398 -16.136700 63.008301 0.000000 37.693501 0.000000 -48.788898 -9.661410 -26.069599 -3.593687 -5.100442 0.518390 0.000000 0.000000 5.347320 -6.521356 9.855542 -1.390829 0.000000 0.000000 -29.683500 3.393088 11.659775 -27.606130 0.000000 0.000000 33.838902 11.535058 -8.524195 5.355126 0.000000 0.000000 -41.558901 
-21.948034 9.121990 29.207056 -13.503398 -54.369851 19.925096 -0.700535 -7.146346 -6.786878 14.959716 -3.742327 -7.608289 0.000000 0.000000 0.000000 -20.344847 8.112701 15.076406 7.085835 4.520171 -89.183341 -37.211800 7.806970 11.802900 -49.176701 10.379500 75.295303 0.000000 -39.282200 0.000000 149.751007 20.830299 -21.574800 27.993900 -6.398520 16.688801 45.903801 -14.784800 61.920502 0.000000 37.894199 0.000000 -48.795200 -10.903800 -26.709801 -3.331449 -5.836407 0.929514 0.000000 0.000000 5.725460 -6.683301 9.294548 -1.828515 0.000000 0.000000 -29.583100 3.166788 12.438800 -27.926995 0.000000 0.000000 28.796700 11.983024 -9.080553 6.304799 0.000000 0.000000 -41.501400 
-22.042667 9.113670 29.287238 -13.116042 -52.781222 19.429330 -1.139427 -6.964160 -6.497149 15.806938 -3.557027 -7.236144 0.000000 0.000000 0.000000 -20.445761 7.794463 14.538241 7.769067 4.006781 -89.428953 -37.261700 7.718960 10.839500 -48.841801 10.967600 75.084702 0.000000 -40.713001 0.000000 150.035004 20.081499 -21.349701 27.579300 -6.542310 14.811700 45.532700 -15.991900 62.653301 0.000000 37.912800 0.000000 -48.681999 -10.508000 -26.584801 -3.145857 -6.108355 1.527495 0.000000 0.000000 6.191320 -6.380754 8.532006 -2.074671 0.000000 0.000000 -29.993600 2.976936 12.759891 -27.966823 0.000000 0.000000 23.927000 12.357543 -8.962027 7.830870 0.000000 0.000000 -41.624599 
-22.141359 9.100683 29.358556 -12.869346 -50.997684 17.882017 -1.514288 -6.957700 -5.024082 16.165148 -3.547190 -6.985579 0.000000 0.000000 0.000000 -20.076316 7.428005 14.106004 8.060987 3.993979 -89.481063 -37.281799 7.820890 10.680100 -48.892700 10.821200 75.014603 0.000000 -40.689899 0.000000 149.468994 20.751200 -21.598200 27.492500 -6.274610 15.189500 45.509602 -15.685600 62.556198 0.000000 38.051701 0.000000 -48.627499 -10.798100 -27.156200 -2.839218 -6.528326 3.207470 0.000000 0.000000 6.807880 -6.722265 7.390106 -2.691977 0.000000 0.000000 -29.802600 3.374935 12.634241 -26.727791 0.000000 0.000000 19.329700 11.755478 -8.595705 9.125674 0.000000 0.000000 -41.074400 
-22.236378 9.089583 29.443448 -12.409856 -49.522065 17.593389 -1.692011 -6.724390 -5.063321 16.327731 -3.331710 -6.724979 0.000000 0.000000 0.000000 -19.682579 6.937265 13.877443 8.354120 4.003516 -89.693694 -37.483799 7.837400 10.814400 -48.832901 10.549200 74.654602 0.000000 -40.603500 0.000000 151.740997 20.145500 -21.145901 27.523600 -6.085440 15.622000 45.205399 -15.295300 62.479698 0.000000 38.291401 0.000000 -48.317501 -10.863100 -26.885500 -2.708279 -6.938155 3.566863 0.000000 0.000000 7.309460 -6.512834 6.681462 -2.901423 0.000000 0.000000 -30.054300 3.247225 12.464528 -26.767497 0.000000 0.000000 14.845300 12.173240 -7.618938 9.820112 0.000000 0.000000 -41.280800 
-22.333806 9.076023 29.534605 -11.843401 -48.034234 17.168993 -1.830060 -6.524079 -5.067763 16.407772 -3.145896 -6.513088 0.000000 0.000000 0.000000 -19.350042 6.475536 13.661316 8.670334 3.955206 -89.831193 -37.566898 7.874080 10.729100 -48.868301 10.588000 74.173401 0.000000 -40.550499 0.000000 154.003998 20.509300 -20.927900 27.400600 -6.031100 15.462600 44.833302 -15.059800 63.451000 0.000000 38.479000 0.000000 -48.731701 -10.616100 -24.511000 -2.674016 -7.344356 4.010799 0.000000 0.000000 7.851390 -6.439123 5.937692 -3.112414 0.000000 0.000000 -30.177700 3.109555 12.218207 -26.589383 0.000000 0.000000 10.700900 12.559541 -6.597940 9.247580 0.000000 0.000000 -40.676399 
-22.432194 9.060732 29.628464 -11.290179 -46.712063 16.824140 -1.966013 -6.261949 -5.064998 16.441491 -2.877973 -6.396341 0.000000 0.000000 0.000000 -19.193871 6.244532 13.385446 9.057883 3.833502 -89.824720 -37.617500 7.939570 10.570200 -48.913799 10.828000 73.455498 0.000000 -40.590401 0.000000 154.367996 21.432301 -21.077101 27.433701 -5.839880 15.484000 44.306599 -14.843000 64.247200 0.000000 38.915798 0.000000 -49.068699 -10.625100 -24.977301 -2.670450 -7.563459 4.386498 0.000000 0.000000 8.451860 -6.444790 5.117726 -3.293946 0.000000 0.000000 -30.265500 3.077330 11.825104 -26.536839 0.000000 0.000000 7.226590 12.932412 -5.727187 8.368018 0.000000 0.000000 -39.895599 
-22.539320 9.046756 29.723315 -10.721756 -45.274906 16.585621 -2.272974 -6.096091 -5.199734 16.753790 -2.676458 -6.349004 0.000000 0.000000 0.000000 -19.038583 5.918276 13.218216 9.338409 3.679245 -89.797626 -37.724300 7.999680 10.488200 -48.997700 11.008400 73.075203 0.000000 -40.592899 0.000000 153.115005 21.843500 -21.355200 27.339600 -5.655140 15.821100 43.896301 -14.335300 65.160698 0.000000 39.319599 0.000000 -49.137501 -10.969300 -24.102600 -2.533393 -7.579691 4.577289 0.000000 0.000000 9.256150 -6.650369 3.931885 -3.430183 0.000000 0.000000 -30.217500 3.200495 11.188269 -26.502912 0.000000 0.000000 4.292420 13.230174 -5.111031 7.534972 0.000000 0.000000 -39.779400 
